<svg width="14" height="19" viewBox="0 0 14 19" fill="none" xmlns="http://www.w3.org/2000/svg">
<path fill-rule="evenodd" clip-rule="evenodd" d="M7 0.25C4.92893 0.25 3.25 1.92893 3.25 4V7H3C1.34315 7 0 8.34315 0 10V16C0 17.6569 1.34315 19 3 19H11C12.6569 19 14 17.6569 14 16V10C14 8.34315 12.6569 7 11 7H10.75V4C10.75 1.92893 9.07107 0.25 7 0.25ZM9.25 7V4C9.25 2.75736 8.24264 1.75 7 1.75C5.75736 1.75 4.75 2.75736 4.75 4V7H9.25ZM9 13C9 14.1046 8.10457 15 7 15C5.89543 15 5 14.1046 5 13C5 11.8954 5.89543 11 7 11C8.10457 11 9 11.8954 9 13Z" fill="#B2B2B2"/>
</svg>
